<?xml version="1.0" encoding="utf-8"?>
<svg
version="1.1"
xmlns="http://www.w3.org/2000/svg"
xmlns:xlink="http://www.w3.org/1999/xlink"
 width="220" height="92">
     <g 
         transform="translate(-45, 0)"
     >
         <path d="M 68,64 L 116,17 M 68,16 116,63" stroke="black"/>
        <path d="M 92,71 S 86,59 73,58" stroke="var(--color-black)" fill="none"/>
        <path d="M 73,58 S 73,48 64,40 M 64,40 S 73,31 72,20 M 72,20 S 86,20 92,8 M 92,8 S 97,20 113,19 M 113,19 S 112,32 120,39 M 120,39 S 112,47  112,59  
        M 112,59 S 99,55 92,71 "
         stroke="var(--color-black)" fill="none"/>

        <!-- الخط الداخلي -->
         <path d="M 59,40 L 125,39 M 92,20 L 92,60" stroke="var(--color-black)"/>
        <!-- <path d="M 93,72 C 87,59 3"/> -->

        <path d="M 92,57 S 88,51 80,51 M 80,51 S 80,45 73,40 M 73,40 S 79,35 79,27 M 79,27 S 88,28 92,20 M 92,20 S 97,28 105,27
         M 105,27 S 104,35 110,40 M 110,40 S 105,44 104,51
         M 104,51 S 96,51 92,57"
        stroke="var(--color-black)" fill="none"/>


        <!-- !!! -->

        <path d="M 82,39 L 92,30 L 102,39 L 92,49 L 82,39" stroke="var(--color-black)" fill="none"/>
     </g>

    </svg>